<?xml version="1.0" encoding="UTF-8"?>
<svg enable-background="new 0 0 24.0 24.0" stroke-linecap="round" stroke-opacity="0" stroke-width="0" version="1.1" viewBox="0 0 24 24" xmlns="http://www.w3.org/2000/svg">
<rect width="100%" height="100%" fill="#add8e6"/>
<path d="m5.53 4.84h12.94a1 1 0 0 1 1.01 1v12.32a1 1 0 0 1-1.01 1h-12.94a1 1 0 0 1-1.01-1v-12.32a1 1 0 0 1 1.01-1z
m-0.4 3.26 0.01 9.85q0 0.5 0.47 0.5l12.57 0.01q0.61 0 0.61-0.64v-9.71l-13.66-0.01z" fill="#fff"/>
<defs>
	<style type="text/css">
		@font-face {
			font-family: 'comicNeueSans'; 
			src: url('./comicNeueSans.ttf');
		}
	</style>
</defs>

<text font-size="2.660576" font-family="comicNeueSans" fill="#222" stroke-width="0" fill-opacity="0.667" text-anchor="start" font-weight="bold" transform="rotate(-0.0 12.0 6.5818133) scale(1.246548 1.0)" >
	<tspan x="4.2610846" y="7.787313">Activities</tspan>
</text>
<path d="m15.95 8.83h1.62a0.6 0.6 0 0 1 0.6 0.6v1.61a0.6 0.6 0 0 1-0.6 0.61h-1.62a0.6 0.6 0 0 1-0.6-0.61v-1.61a0.6 0.6 0 0 1 0.6-0.6z" fill="#D40016" fill-opacity=".831" stroke="#000"/>
<path d="m9.6 12h1.62a0.6 0.6 0 0 1 0.6 0.6v1.62a0.6 0.6 0 0 1-0.6 0.6h-1.62a0.6 0.6 0 0 1-0.6-0.6v-1.62a0.6 0.6 0 0 1 0.6-0.6z
m3.18 0h1.62a0.6 0.6 0 0 1 0.6 0.6v1.62a0.6 0.6 0 0 1-0.6 0.6h-1.62a0.6 0.6 0 0 1-0.6-0.6v-1.62a0.6 0.6 0 0 1 0.6-0.6z
m3.17 0h1.62a0.6 0.6 0 0 1 0.6 0.6v1.62a0.6 0.6 0 0 1-0.6 0.6h-1.62a0.6 0.6 0 0 1-0.6-0.6v-1.62a0.6 0.6 0 0 1 0.6-0.6z
m-9.52 0h1.62a0.6 0.6 0 0 1 0.6 0.6v1.62a0.6 0.6 0 0 1-0.6 0.6h-1.62a0.6 0.6 0 0 1-0.6-0.6v-1.62a0.6 0.6 0 0 1 0.6-0.6z
m3.17 3.17h1.62a0.6 0.6 0 0 1 0.6 0.61v1.61a0.6 0.6 0 0 1-0.6 0.61h-1.62a0.6 0.6 0 0 1-0.6-0.61v-1.61a0.6 0.6 0 0 1 0.6-0.61z
m3.18 0h1.62a0.6 0.6 0 0 1 0.6 0.61v1.61a0.6 0.6 0 0 1-0.6 0.61h-1.62a0.6 0.6 0 0 1-0.6-0.61v-1.61a0.6 0.6 0 0 1 0.6-0.61z
m-6.35 0h1.62a0.6 0.6 0 0 1 0.6 0.61v1.61a0.6 0.6 0 0 1-0.6 0.61h-1.62a0.6 0.6 0 0 1-0.6-0.61v-1.61a0.6 0.6 0 0 1 0.6-0.61z" fill-opacity=".733"/>
<path d="m10.03 10.75q0.74-1.32 1.6-1.44l0.1 0.48q-0.83 0.32-1.36 1.56l-0.62-0.02q-0.1-0.63-0.64-0.96l0.23-0.37q0.53 0.24 0.69 0.75z
m3.15-0.09q0.74-1.31 1.6-1.44l0.1 0.48q-0.83 0.33-1.36 1.56l-0.62-0.01q-0.1-0.64-0.64-0.96l0.23-0.37q0.53 0.23 0.69 0.74z" fill="#31FF11" stroke="#000" stroke-opacity="1" stroke-width=".084648"/>
</svg>
