<?xml version="1.0" encoding="UTF-8"?>
<svg enable-background="new 0 0 24.0 24.0" stroke-linecap="round" stroke-opacity="0" stroke-width="0" version="1.1" viewBox="0 0 24 24" xmlns="http://www.w3.org/2000/svg">
<rect width="100%" height="100%" fill="#add8e6"/>
<path d="m5.53 4.84h12.94a1 1 0 0 1 1.01 1v12.32a1 1 0 0 1-1.01 1h-12.94a1 1 0 0 1-1.01-1v-12.32a1 1 0 0 1 1.01-1z
m-0.4 3.26 0.01 9.85q0 0.5 0.47 0.5l12.57 0.01q0.61 0 0.61-0.64v-9.71l-13.66-0.01z" fill="#fff"/>
<path transform="translate(4.2611 3.7873)" d="m0.606 2.1975.1245 2.1975a.2338.2338 90 01.09 2.1952q.0725 2.1925.0583 2.187a.093.093 90 01.0307 2.1705.0889.0889 90 01.0004 2.1082.1235.1235 90 010 2.0985.1204.1204 90 01.0026 2.073.0865.0865 90 01.015 2.043q.0256 2.0272.0465 2.0114a.2676.2676 90 01.066 1.998l.0975 1.9785a.2449.2449 90 00.1534 1.9327.2198.2198 90 00.1755 1.9035.2792.2792 90 00.1914 1.8741q.2071 1.8411.224 1.7902a1.5421 1.5421 90 00.237 1.749l.6225.5025q.6495.414.642.3735.6345.333.5805.3075a.2268.2268 90 01.5556.2932q.5435.2851.5346.2763a.0979.0979 90 01.5212.2603q.504.234.504.1965a.1101.1101 90 01.5083.1648.0836.0836 90 01.5355.1237.0983.0983 90 01.5665.1068q.5932.0975.6315.0975l1.5915.0975a.2534.2534 90 011.6251.0996q1.6643.1048 1.6864.1234a.0781.0781 90 011.6867.1237.0858.0858 90 011.7162.1785.1238.1238 90 011.7175.1965q1.7175.237 1.6987.2625a.1234.1234 90 011.6709.2896.1675.1675 90 011.6455.3045.1131.1131 90 001.6259.3163q1.6151.3245 1.6088.3345a.0565.0565 90 001.6012.3525.0658.0658 90 001.5999.3614q1.5974.3915 1.6155.4485l2.0325 1.77q2.064 1.869 2.0895 1.9155a.1786.1786 90 002.1144 1.9508.1352.1352 90 002.1555 1.9815.3937.3937 90 012.1809 1.9957q2.2051 2.0105 2.2183 2.0247a.0797.0797 90 012.2252 2.0333.0898.0898 90 012.2382 2.062q2.2414 2.0742 2.2422 2.0886a.1768.1768 90 012.2425 2.0985.1064.1064 90 012.2375 2.1318.0867.0867 90 012.2117 2.1705.0941.0941 90 012.1812 2.188q2.1672 2.1931 2.1498 2.1954a.247.247 90 012.1165 2.1975l1.323 2.1975q1.2591 2.1975 1.229 2.1722a.0746.0746 90 011.227 2.1705q1.197 2.0665 1.2107 2.0454a.0716.0716 90 011.2157 2.0385.1151.1151 90 011.2341 2.0211q1.2502 2.0088 1.2735 1.998l1.3215 1.9755a.0962.0962 90 001.3361 1.9673q1.3591 1.9513 1.3553 1.928a.0443.0443 90 001.3552 1.9275.3357.3357 90 001.3517 1.9101q1.3448 1.8802 1.329 1.8285l.957.356.516 1.7115q.4934 1.7834.4921 1.8294a.1968.1968 90 00.492 1.8352q.492 1.8825.5212 1.9147a.1965.1965 90 00.5452 1.9368q.5707 1.9568.6096 1.9772a.6634.6634 90 00.615 1.98l.6555 2.001q.69 2.019.7103 2.04.7305 2.061.7305 2.0985a.1094.1094 90 01.7259 2.1309.0868.0868 90 01.7005 2.1705q.6705 2.1975.606 2.1975z
m0.569 1.545 1.257 1.54 1.193 1.29.652 1.289z
m12.894 1.506a.364.364 90 0012.9118 1.5056q12.946 1.5039 12.9744 1.4957a.1785.1785 90 0013.0545 1.449q13.11 1.392 13.11 1.29a.6856.6856 90 0013.1077 1.2334.5584.5584 90 0013.032.9907.4896.4896 90 0012.9345.8734.5935.5935 90 0012.7988.7845.6295.6295 90 0012.7343.7578q12.6615.7321 12.5745.7201a1.1962 1.1962 90 0012.411.7095 1.3631 1.3631 90 0012.4038.7095q12.2929.7101 12.1957.7288a.8084.8084 90 0011.9625.81q11.7765.9105 11.679 1.0913a.7842.7842 90 0011.6029 1.3009 1.0232 1.0232 90 0011.5815 1.515q11.5815 1.7325 11.688 1.8952 11.7945 2.058 11.9768 2.1487a.8341.8341 90 0012.145 2.2108.9861.9861 90 0012.387 2.2395 1.1119 1.1119 90 0012.5644 2.226.8113.8113 90 0012.762 2.169q12.9225 2.0985 13.0132 1.9815a.5022.5022 90 0013.0357 1.9501.3939.3939 90 0013.104 1.7295.2496.2496 90 0013.1039 1.7212q13.1033 1.7043 13.1004 1.6896a.138.138 90 0013.0905 1.6583.0659.0659 90 0013.0856 1.6494q13.0783 1.6384 13.0675 1.6333a.0476.0476 90 0013.047 1.629q13.026 1.629 13.0043 1.6418a.1521.1521 90 0012.9931 1.649q12.9728 1.6635 12.9405 1.6935a.4848.4848 90 0112.8725 1.7463.3536.3536 90 0112.7822 1.788.5672.5672 90 0112.7015 1.8052.728.728 90 0112.6 1.812.598.598 90 0112.4811 1.8008.4072.4072 90 0112.264 1.6852.3773.3773 90 0112.1846 1.5586q12.1616 1.5 12.1507 1.4267a.9742.9742 90 0112.141 1.284 1.0824 1.0824 90 0112.1429 1.2192q12.1452 1.1796 12.1507 1.1454a.4954.4954 90 0112.1657 1.0785.4287.4287 90 0112.1787 1.0419q12.1889 1.0169 12.2012.9971a.1884.1884 90 0112.2325.9585.1745.1745 90 0112.2418.9505.1326.1326 90 0112.327.9195q12.3788.9195 12.4164.964a.219.219 90 0112.4418 1.002.2515.2515 90 0112.4588 1.0426q12.4773 1.0994 12.4832 1.1873a1.335 1.335 90 0112.486 1.2765.116.116 90 0112.4842 1.2975q12.4766 1.3388 12.4364 1.3494a.124.124 90 0112.405 1.353l12.0045 1.353 12.0045 1.506 12.894 1.506z
m14.5665.807 14.6445 1.077a.4648.4648 90 0114.6542 1.1126q14.6661 1.1647 14.6587 1.1992a.082.082 90 0114.6174 1.256.1127.1127 90 0114.6025 1.263.1695.1695 90 0114.5817 1.2688q14.553 1.2747 14.5297 1.2675a.0824.0824 90 0114.52 1.2637.119.119 90 0114.4933 1.2465q14.4818 1.237 14.4705 1.2237a.2899.2899 90 0114.4525 1.2q14.3846 1.0982 14.311 1.032a.6443.6443 90 0014.3085 1.0297.6019.6019 90 0014.2174.9623.4989.4989 90 0014.1517.9293q14.07.8955 13.9815.8955a.4103.4103 90 0013.927.8989q13.8676.9069 13.8322.9337 13.7833.971 13.782 1.0319a.1556.1556 90 0013.782 1.035.1267.1267 90 0013.7879 1.0742.1105.1105 90 0013.8022 1.1032q13.8225 1.1325 13.8855 1.1557a.5868.5868 90 0013.9283 1.1695q13.9721 1.1819 14.0336 1.1941a2.4303 2.4303 90 0014.073 1.2015 1.6736 1.6736 90 0114.2123 1.2331q14.3354 1.267 14.4187 1.3148a.5501.5501 90 0114.5114 1.3807.3925.3925 90 0114.6002 1.4932.4778.4778 90 0114.646 1.6323.6486.6486 90 0114.655 1.743.4643.4643 90 0114.6284 1.9022.4219.4219 90 0114.5747 2.004.5036.5036 90 0114.4047 2.1532.6235.6235 90 0114.3543 2.178.7236.7236 90 0114.1589 2.2316.9275.9275 90 0114.0355 2.2395q13.9291 2.2395 13.8659 2.2218a.293.293 90 0113.8622 2.2208 1.1165 1.1165 90 0113.8194 2.2073q13.7995 2.2005 13.7825 2.1938a.4946.4946 90 0113.758 2.1833.209.209 90 0013.7154 2.1686.1703.1703 90 0013.6785 2.1645q13.641 2.1645 13.6118 2.1833 13.5825 2.202 13.5547 2.2208 13.527 2.2395 13.4925 2.2395a.0741.0741 90 0113.4614 2.2331.0723.0723 90 0113.4377 2.2155.0909.0909 90 0113.4247 2.1962q13.4143 2.1761 13.4076 2.145a.3657.3657 90 0113.4055 2.1345l13.359 1.8735q13.3465 1.8038 13.3559 1.7665a.0937.0937 90 0113.3575 1.761.0827.0827 90 0113.4002 1.7115.1171.1171 90 0113.41 1.707.1286.1286 90 0113.4292 1.7003q13.4627 1.6918 13.4902 1.707 13.5255 1.7265 13.563 1.779a1.0163 1.0163 90 0013.6346 1.8717q13.6732 1.9157 13.7122 1.9477a.4525.4525 90 0013.7737 1.9905.5047.5047 90 0013.8666 2.0326.3704.3704 90 0013.983 2.052.31.31 90 0014.0293 2.0488q14.0531 2.0452 14.0722 2.0375a.1238.1238 90 0014.1098 2.0145.1302.1302 90 0014.1383 1.9781.1149.1149 90 0014.151 1.9245q14.151 1.893 14.139 1.8645 14.127 1.836 14.0827 1.8127a.2427.2427 90 0014.0521 1.7995q14.0197 1.7879 13.9724 1.7783a1.0665 1.0665 90 0013.944 1.773 2.4356 2.4356 90 0113.7852 1.7412q13.6371 1.7059 13.5406 1.6585a.6493.6493 90 0113.5225 1.6492.6401.6401 90 0113.4352 1.5941q13.3594 1.5365 13.3245 1.4663 13.272 1.3605 13.272 1.23a.5653.5653 90 0113.2958 1.0616.4388.4388 90 0113.4415.8475.5423.5423 90 0113.6133.7556q13.7509.7095 13.9425.7095 14.055.7095 14.1232.7275 14.1915.7455 14.2327.7635 14.2633.7768 14.2885.7803a.1252.1252 90 0014.3055.7815.1262.1262 90 0014.3283.7796q14.3499.7756 14.364.7635 14.385.7455 14.4075.7275a.0754.0754 90 0114.433.7145q14.4437.7112 14.4565.7101a.1617.1617 90 0114.4705.7095.0859.0859 90 0114.5208.7258.1091.1091 90 0114.526.7297q14.5515.75 14.5665.807z
m7.3425 2.1975 7.0995 2.1975a.2015.2015 90 017.0422 2.1897.1683.1683 90 016.993 2.166q6.9537 2.1385 6.927 2.0836a.343.343 90 016.9195 2.067l6.4995 1.041a.9069.9069 90 006.4895 1.017q6.4755.9846 6.4654.9704a.081.081 90 006.465.9698.0983.0983 90 006.4537.9565q6.4449.948 6.435.9435l6.402.9285a.1557.1557 90 016.3827.9166q6.3684.9062 6.36.894 6.3465.8745 6.3465.8415 6.3465.801 6.375.7777a.0967.0967 90 016.41.76q6.429.7545 6.453.7545l7.2615.7545a.1851.1851 90 017.3005.7582q7.3574.7705 7.3652.8234a.1226.1226 90 017.3665.8415q7.3665.8705 7.3531.8891a.0617.0617 90 017.3492.894q7.3365.9084 7.3128.9187a.196.196 90 017.2945.9255l7.2525.9375a.1797.1797 90 007.2239.9486q7.1889.9661 7.179.9952 7.1655 1.035 7.203 1.131l7.497 1.902 7.3545 1.9905 7.662 1.1325q7.698 1.035 7.6845.9945a.074.074 90 007.6563.9574q7.639.945 7.6125.9375l7.5705.9255a.1839.1839 90 017.5479.9164q7.5366.9108 7.5278.9042a.0865.0865 90 017.5165.894.0656.0656 90 017.5009.8639q7.4985.8538 7.4985.8419a.1215.1215 90 017.4985.8415q7.4985.801 7.527.7777a.0967.0967 90 017.562.76q7.581.7545 7.605.7545l7.992.7545a.1714.1714 90 018.0236.7573q8.0515.7625 8.0707.7777a.0753.0753 90 018.0996.8329.1048.1048 90 018.1.8415q8.1.87 8.0865.891a.0607.0607 90 018.0728.9057q8.0593.9163 8.037.9244a.2141.2141 90 018.034.9255l8.0055.936a.0635.0635 90 007.9872.9474q7.9726.96 7.9586.9836a.2649.2649 90 007.9537.9923.6144.6144 90 007.9404 1.0186q7.9258 1.0491 7.907 1.0942a3.2287 3.2287 90 007.8885 1.14l7.527 2.0805q7.4985 2.151 7.449 2.1742 7.3995 2.1975 7.3425 2.1975z
m3.294 1.179 3.294 1.128a.3759.3759 90 003.2894 1.0673q3.2805 1.0129 3.2542.9757 3.2147.9198 3.1491.9195a.1548.1548 90 003.1485.9195.141.141 90 003.0721.9424.1897.1897 90 003.0502.9585.2012.2012 90 003.0141.9998q2.9923 1.0323 2.976 1.0785a.4493.4493 90 002.9576 1.1509q2.9475 1.2092 2.9475 1.2825 2.9475 1.4237 2.9859 1.5271a.4616.4616 90 003.0067 1.575.4473.4473 90 003.0861 1.6873.3913.3913 90 003.1695 1.752.4482.4482 90 003.3673 1.8108.5443.5443 90 003.4035 1.812q3.501 1.812 3.579 1.788 3.657 1.764 3.732 1.695a1.1573 1.1573 90 013.7517 1.6777q3.7703 1.6619 3.7838 1.6521a.2015.2015 90 013.7957 1.644.0986.0986 90 013.814 1.635.0713.0713 90 013.8385 1.6305.0427.0427 90 013.8734 1.6471.0664.0664 90 013.8812 1.6598q3.8942 1.6863 3.8954 1.7233a.2373.2373 90 013.8955 1.731.3971.3971 90 013.8247 1.9566.5006.5006 90 013.8062 1.9823.5697.5697 90 013.6636 2.1124.7531.7531 90 013.5587 2.169.795.795 90 013.3585 2.227 1.0759 1.0759 90 013.1905 2.2395.9832.9832 90 012.9487 2.2108.8274.8274 90 012.781 2.1487q2.5995 2.058 2.4937 1.896a.6502.6502 90 012.3931 1.609.8261.8261 90 012.388 1.5165.8986.8986 90 012.4205 1.2709.7698.7698 90 012.4908 1.1018q2.5935.9195 2.781.8145a.8089.8089 90 013.0417.7243 1.0751 1.0751 90 013.2235.7095q3.429.7095 3.5775.7718 3.726.834 3.8062.9382 3.8865 1.0425 3.8865 1.1715a.2507.2507 90 013.8089 1.3568.3149.3149 90 013.801 1.3642.2895.2895 90 013.6642 1.4337.4238.4238 90 013.573 1.443.4208.4208 90 013.4931 1.4359q3.4118 1.4202 3.3638 1.3695a.2503.2503 90 013.2978 1.2315.3465.3465 90 013.294 1.179z
m4.1235.945q4.1565.96 4.1722.9795a.0494.0494 90 014.1745.9825q4.1839.9961 4.1868 1.0192a.1779.1779 90 014.188 1.041l4.188 1.767q4.188 1.8675 4.2119 1.9465a.3721.3721 90 004.3208 2.1217q4.4535 2.2395 4.698 2.2395a.7894.7894 90 004.7968 2.2335.6235.6235 90 004.9897 2.178q5.118 2.1165 5.1908 2.013 5.2635 1.9095 5.2635 1.782a.2608.2608 90 005.2633 1.7726q5.2624 1.7465 5.2561 1.7293a.0609.0609 90 005.2462 1.7115.0515.0515 90 005.2232 1.6951q5.214 1.6919 5.203 1.6919a.079.079 90 005.199 1.692.0879.0879 90 005.191 1.6927.068.068 90 005.1428 1.722.4846.4846 90 005.1253 1.7484.6066.6066 90 005.1037 1.7865q5.085 1.8225 5.0542 1.851 5.0335 1.8702 5.0009 1.8765a.1827.1827 90 014.9665 1.8795.1631.1631 90 014.9555 1.8791q4.9227 1.8769 4.8976 1.8612a.1274.1274 90 014.8585 1.8217.1974.1974 90 014.8359 1.772q4.8282 1.747 4.8245 1.7164a.5132.5132 90 014.821 1.6545l4.821.4515a.203.203 90 004.82.4306q4.816.3918 4.7962.3697a.0794.0794 90 004.7594.3462.1025.1025 90 004.7295.342.1463.1463 90 004.684.3496.2041.2041 90 004.6485.3653q4.6221.3799 4.5933.4049a.563.563 90 004.5585.438l4.3095.687q4.2815.714 4.2612.7293a.2038.2038 90 014.2465.7395q4.2225.7545 4.194.7545l4.1115.7545a.1863.1863 90 004.1065.7546q4.0894.755 4.0749.7587a.1001.1001 90 004.0365.777.0714.0714 90 004.0115.8144.0987.0987 90 004.008.8415.0975.0975 90 004.009.8555.0727.0727 90 004.0245.8918.0894.0894 90 004.0299.8978q4.0458.9141 4.0725.9255l4.1235.945z
m5.016.963a.7308.7308 90 005.0452.9625q5.1091.9599 5.1519.9457a.1672.1672 90 005.1953.9247q5.25.8865 5.25.831 5.25.7935 5.2222.774a.0921.0921 90 005.2105.767q5.1855.7545 5.1495.7545l4.6035.7545 4.6035.963 5.016.963z
m9.285.945q9.318.96 9.3338.9795a.0494.0494 90 019.336.9825q9.3454.9961 9.3483 1.0192a.1779.1779 90 019.3495 1.041l9.3495 1.767q9.3495 1.8675 9.3734 1.9465a.3721.3721 90 009.4822 2.1217q9.615 2.2395 9.8595 2.2395a.7894.7894 90 009.9583 2.2335.6235.6235 90 0010.1512 2.178q10.2795 2.1165 10.3522 2.013 10.425 1.9095 10.425 1.782a.2608.2608 90 0010.4248 1.7726q10.4239 1.7465 10.4176 1.7293a.0609.0609 90 0010.4078 1.7115.0515.0515 90 0010.3847 1.6951q10.3755 1.6919 10.3645 1.6919a.079.079 90 0010.3605 1.692.0879.0879 90 0010.3525 1.6927.068.068 90 0010.3042 1.722.4846.4846 90 0010.2868 1.7484.6066.6066 90 0010.2652 1.7865q10.2465 1.8225 10.2157 1.851 10.195 1.8702 10.1624 1.8765a.1827.1827 90 0110.128 1.8795.1631.1631 90 0110.1171 1.8791q10.0842 1.8769 10.0591 1.8612a.1274.1274 90 0110.02 1.8217.1974.1974 90 019.9974 1.772q9.9897 1.747 9.986 1.7164a.5132.5132 90 019.9825 1.6545l9.9825.4515a.203.203 90 009.9815.4306q9.9775.3918 9.9578.3697a.0794.0794 90 009.9209.3462.1025.1025 90 009.891.342.1463.1463 90 009.8455.3496.2041.2041 90 009.81.3653q9.7836.3799 9.7548.4049a.563.563 90 009.72.438l9.471.687q9.443.714 9.4227.7293a.2038.2038 90 019.408.7395q9.384.7545 9.3555.7545l9.273.7545a.1863.1863 90 009.2681.7546q9.2509.755 9.2364.7587a.1001.1001 90 009.198.777.0714.0714 90 009.173.8144.0987.0987 90 009.1695.8415.0975.0975 90 009.1705.8555.0727.0727 90 009.186.8918.0894.0894 90 009.1914.8978q9.2073.9141 9.234.9255l9.285.945z
m10.1775.963a.7308.7308 90 0010.2067.9625q10.2706.9599 10.3134.9457a.1672.1672 90 0010.3567.9247q10.4115.8865 10.4115.831 10.4115.7935 10.3837.774a.0921.0921 90 0010.372.767q10.347.7545 10.311.7545l9.765.7545 9.765.963 10.1775.963z
m6.1545.8415 6.1545 1.8885a.6071.6071 90 006.1551 1.9156q6.1567 1.9532 6.1635 1.9717 6.1725 1.9965 6.195 2.007l6.228 2.022a.1444.1444 90 016.2494 2.0324q6.2677 2.0432 6.2775 2.058a.0897.0897 90 016.2925 2.1081.1078.1078 90 016.2925 2.109.1047.1047 90 016.2891 2.1365.0744.0744 90 016.2655 2.1742.0814.0814 90 016.2399 2.1888q6.2159 2.1975 6.18 2.1975l5.4945 2.1975a.233.233 90 015.4645 2.1957q5.432 2.1915 5.4134 2.1773a.0652.0652 90 015.4097 2.1742.0759.0759 90 015.3855 2.1306.1128.1128 90 015.3835 2.109.0923.0923 90 015.3906 2.0727.0886.0886 90 015.3985 2.058.0833.0833 90 015.4188 2.0372q5.4305 2.0285 5.4465 2.022l5.481 2.007a.0592.0592 90 005.5119 1.9733.0778.0778 90 005.5125 1.9717q5.5194 1.9528 5.521 1.9142a.6156.6156 90 005.5215 1.8885l5.5215 1.173a.2708.2708 90 005.5207 1.1515q5.519 1.1302 5.5136 1.1167a.0536.0536 90 005.5088 1.107.0627.0627 90 005.4811 1.0839.0843.0843 90 005.4705 1.08l5.4375 1.0695a.1348.1348 90 015.4183 1.0615q5.4084 1.0564 5.4011 1.0501a.0647.0647 90 015.3918 1.0402q5.3783 1.0225 5.3775.9947a.1225.1225 90 015.3775.9915.0993.0993 90 015.3802.9675.0704.0704 90 015.397.936.0911.0911 90 015.4115.9237q5.4273.9126 5.4526.902a.424.424 90 015.469.8955l5.808.765a2.8794 2.8794 90 015.8456.7511q5.8989.7318 5.9333.7222 5.9692.7123 5.9982.7101a.2075.2075 90 016.0135.7095.2107.2107 90 016.0539.7131q6.077.7176 6.0947.7278a.1044.1044 90 016.1192.747.1288.1288 90 016.1538.8259.1719.1719 90 016.1545.8415z
m8.9475.8415 8.9475 1.8885a.6071.6071 90 008.9481 1.9156q8.9497 1.9532 8.9565 1.9717 8.9655 1.9965 8.988 2.007l9.021 2.022a.1444.1444 90 019.0424 2.0324q9.0607 2.0432 9.0705 2.058a.0897.0897 90 019.0855 2.1081.1078.1078 90 019.0855 2.109.1047.1047 90 019.0821 2.1365.0744.0744 90 019.0585 2.1742.0814.0814 90 019.0329 2.1888q9.0089 2.1975 8.973 2.1975l8.2875 2.1975a.233.233 90 018.2575 2.1957q8.225 2.1915 8.2064 2.1773a.0652.0652 90 018.2027 2.1742.0759.0759 90 018.1785 2.1306.1128.1128 90 018.1765 2.109.0923.0923 90 018.1836 2.0727.0886.0886 90 018.1915 2.058.0833.0833 90 018.2118 2.0372q8.2235 2.0285 8.2395 2.022l8.274 2.007a.0592.0592 90 008.3049 1.9733.0778.0778 90 008.3055 1.9717q8.3124 1.9528 8.314 1.9142a.6156.6156 90 008.3145 1.8885l8.3145 1.173a.2708.2708 90 008.3137 1.1515q8.312 1.1302 8.3066 1.1167a.0536.0536 90 008.3018 1.107.0627.0627 90 008.2741 1.0839.0843.0843 90 008.2635 1.08l8.2305 1.0695a.1348.1348 90 018.2113 1.0615q8.2014 1.0564 8.1941 1.0501a.0647.0647 90 018.1847 1.0402q8.1713 1.0225 8.1705.9947a.1225.1225 90 018.1705.9915.0993.0993 90 018.1732.9675.0704.0704 90 018.19.936.0911.0911 90 018.2045.9237q8.2203.9126 8.2456.902a.424.424 90 018.262.8955l8.601.765a2.8794 2.8794 90 018.6386.7511q8.6919.7318 8.7263.7222 8.7622.7123 8.7912.7101a.2075.2075 90 018.8065.7095.2107.2107 90 018.8469.7131q8.87.7176 8.8877.7278a.1044.1044 90 018.9122.747.1288.1288 90 018.9468.8259.1719.1719 90 018.9475.8415z
m11.316.8415 11.316 1.8885a.6071.6071 90 0011.3166 1.9156q11.3182 1.9532 11.325 1.9717 11.334 1.9965 11.3565 2.007l11.3895 2.022a.1444.1444 90 0111.4109 2.0324q11.4292 2.0432 11.439 2.058a.0897.0897 90 0111.454 2.1081.1078.1078 90 0111.454 2.109.1047.1047 90 0111.4506 2.1365.0744.0744 90 0111.427 2.1742.0814.0814 90 0111.4014 2.1888q11.3774 2.1975 11.3415 2.1975l10.656 2.1975a.233.233 90 0110.626 2.1957q10.5935 2.1915 10.5749 2.1773a.0652.0652 90 0110.5712 2.1742.0759.0759 90 0110.547 2.1306.1128.1128 90 0110.545 2.109.0923.0923 90 0110.5521 2.0727.0886.0886 90 0110.56 2.058.0833.0833 90 0110.5802 2.0372q10.592 2.0285 10.608 2.022l10.6425 2.007a.0592.0592 90 0010.6734 1.9733.0778.0778 90 0010.674 1.9717q10.6809 1.9528 10.6825 1.9142a.6156.6156 90 0010.683 1.8885l10.683 1.173a.2708.2708 90 0010.6822 1.1515q10.6805 1.1302 10.6751 1.1167a.0536.0536 90 0010.6702 1.107.0627.0627 90 0010.6426 1.0839.0843.0843 90 0010.632 1.08l10.599 1.0695a.1348.1348 90 0110.5798 1.0615q10.5699 1.0564 10.5626 1.0501a.0647.0647 90 0110.5532 1.0402q10.5398 1.0225 10.539.9947a.1225.1225 90 0110.539.9915.0993.0993 90 0110.5417.9675.0704.0704 90 0110.5585.936.0911.0911 90 0110.573.9237q10.5888.9126 10.6141.902a.424.424 90 0110.6305.8955l10.9695.765a2.8794 2.8794 90 0111.0071.7511q11.0604.7318 11.0947.7222 11.1307.7123 11.1597.7101a.2075.2075 90 0111.175.7095.2107.2107 90 0111.2154.7131q11.2385.7176 11.2562.7278a.1044.1044 90 0111.2807.747.1288.1288 90 0111.3153.8259.1719.1719 90 0111.316.8415z
m5.541.5002a.254.254 90 015.4445.3145.344.344 90 015.4435.288.2935.2935 90 015.459.1906.2465.2465 90 015.541.0772.335.335 90 015.6599.0181q5.7244 0 5.805 0a.5906.5906 90 015.911.0089q6.0059.0262 6.0697.0772a.2498.2498 90 016.1654.2595.3445.3445 90 016.1665.288.2967.2967 90 016.1505.3874.2518.2518 90 016.0697.5002.3285.3285 90 015.951.5605q5.903.5743 5.8459.5778a.6623.6623 90 015.805.579q5.6761.579 5.5885.5318a.3084.3084 90 015.541.5002z
m8.334.5002a.254.254 90 018.2375.3145.344.344 90 018.2365.288.2935.2935 90 018.252.1906.2465.2465 90 018.334.0772.335.335 90 018.4529.0181q8.5174 0 8.598 0a.5906.5906 90 018.704.0089q8.7989.0262 8.8628.0772a.2498.2498 90 018.9584.2595.3445.3445 90 018.9595.288.2967.2967 90 018.9435.3874.2518.2518 90 018.8628.5002.3285.3285 90 018.744.5605q8.696.5743 8.6389.5778a.6623.6623 90 018.598.579q8.4691.579 8.3815.5318a.3084.3084 90 018.334.5002z
m10.7025.5002a.254.254 90 0110.606.3145.344.344 90 0110.605.288.2935.2935 90 0110.6205.1906.2465.2465 90 0110.7025.0772.335.335 90 0110.8214.0181q10.8859 0 10.9665 0a.5906.5906 90 0111.0725.0089q11.1674.0262 11.2312.0772a.2498.2498 90 0111.3269.2595.3445.3445 90 0111.328.288.2967.2967 90 0111.312.3874.2518.2518 90 0111.2312.5002.3285.3285 90 0111.1125.5605q11.0645.5743 11.0074.5778a.6623.6623 90 0110.9665.579q10.8376.579 10.75.5318a.3084.3084 90 0110.7025.5002z" fill="#222"/>
<path d="m15.95 8.83h1.62a0.6 0.6 0 0 1 0.6 0.6v1.61a0.6 0.6 0 0 1-0.6 0.61h-1.62a0.6 0.6 0 0 1-0.6-0.61v-1.61a0.6 0.6 0 0 1 0.6-0.6z" fill="#D40016" fill-opacity=".831" stroke="#000"/>
<path d="m9.6 12h1.62a0.6 0.6 0 0 1 0.6 0.6v1.62a0.6 0.6 0 0 1-0.6 0.6h-1.62a0.6 0.6 0 0 1-0.6-0.6v-1.62a0.6 0.6 0 0 1 0.6-0.6z
m3.18 0h1.62a0.6 0.6 0 0 1 0.6 0.6v1.62a0.6 0.6 0 0 1-0.6 0.6h-1.62a0.6 0.6 0 0 1-0.6-0.6v-1.62a0.6 0.6 0 0 1 0.6-0.6z
m3.17 0h1.62a0.6 0.6 0 0 1 0.6 0.6v1.62a0.6 0.6 0 0 1-0.6 0.6h-1.62a0.6 0.6 0 0 1-0.6-0.6v-1.62a0.6 0.6 0 0 1 0.6-0.6z
m-9.52 0h1.62a0.6 0.6 0 0 1 0.6 0.6v1.62a0.6 0.6 0 0 1-0.6 0.6h-1.62a0.6 0.6 0 0 1-0.6-0.6v-1.62a0.6 0.6 0 0 1 0.6-0.6z
m3.17 3.17h1.62a0.6 0.6 0 0 1 0.6 0.61v1.61a0.6 0.6 0 0 1-0.6 0.61h-1.62a0.6 0.6 0 0 1-0.6-0.61v-1.61a0.6 0.6 0 0 1 0.6-0.61z
m3.18 0h1.62a0.6 0.6 0 0 1 0.6 0.61v1.61a0.6 0.6 0 0 1-0.6 0.61h-1.62a0.6 0.6 0 0 1-0.6-0.61v-1.61a0.6 0.6 0 0 1 0.6-0.61z
m-6.35 0h1.62a0.6 0.6 0 0 1 0.6 0.61v1.61a0.6 0.6 0 0 1-0.6 0.61h-1.62a0.6 0.6 0 0 1-0.6-0.61v-1.61a0.6 0.6 0 0 1 0.6-0.61z" fill-opacity=".733"/>
<path d="m10.03 10.75q0.74-1.32 1.6-1.44l0.1 0.48q-0.83 0.32-1.36 1.56l-0.62-0.02q-0.1-0.63-0.64-0.96l0.23-0.37q0.53 0.24 0.69 0.75z
m3.15-0.09q0.74-1.31 1.6-1.44l0.1 0.48q-0.83 0.33-1.36 1.56l-0.62-0.01q-0.1-0.64-0.64-0.96l0.23-0.37q0.53 0.23 0.69 0.74z" fill="#31FF11" stroke="#000" stroke-opacity="1" stroke-width=".084648"/>
</svg>
